<mxfile host="65bd71144e">
    <diagram id="NNNPbD63-9Dpp8XEjWer" name="Page-1">
        <mxGraphModel dx="2751" dy="2175" grid="1" gridSize="10" guides="1" tooltips="1" connect="1" arrows="1" fold="1" page="1" pageScale="1" pageWidth="850" pageHeight="1100" math="0" shadow="0">
            <root>
                <mxCell id="0"/>
                <mxCell id="1" parent="0"/>
                <mxCell id="2" value="Universe" style="swimlane;whiteSpace=wrap;html=1;" vertex="1" parent="1">
                    <mxGeometry x="130" y="160" width="730" height="520" as="geometry"/>
                </mxCell>
                <mxCell id="5" style="edgeStyle=none;html=1;" edge="1" parent="2" source="3" target="4">
                    <mxGeometry relative="1" as="geometry"/>
                </mxCell>
                <mxCell id="3" value="Data" style="ellipse;whiteSpace=wrap;html=1;aspect=fixed;" vertex="1" parent="2">
                    <mxGeometry x="60" y="80" width="80" height="80" as="geometry"/>
                </mxCell>
                <mxCell id="4" value="Property" style="rhombus;whiteSpace=wrap;html=1;" vertex="1" parent="2">
                    <mxGeometry x="255" y="80" width="80" height="80" as="geometry"/>
                </mxCell>
                <mxCell id="7" value="Role" style="rounded=1;whiteSpace=wrap;html=1;" vertex="1" parent="2">
                    <mxGeometry x="500" y="90" width="120" height="60" as="geometry"/>
                </mxCell>
                <mxCell id="34" style="edgeStyle=none;html=1;exitX=0.5;exitY=0;exitDx=0;exitDy=0;entryX=0.25;entryY=1;entryDx=0;entryDy=0;" edge="1" parent="2" source="33" target="7">
                    <mxGeometry relative="1" as="geometry">
                        <Array as="points">
                            <mxPoint x="395" y="250"/>
                            <mxPoint x="530" y="250"/>
                        </Array>
                    </mxGeometry>
                </mxCell>
                <mxCell id="36" value="Role.permissions" style="edgeLabel;html=1;align=center;verticalAlign=middle;resizable=0;points=[];" vertex="1" connectable="0" parent="34">
                    <mxGeometry x="-0.0394" y="-1" relative="1" as="geometry">
                        <mxPoint as="offset"/>
                    </mxGeometry>
                </mxCell>
                <mxCell id="40" style="edgeStyle=none;html=1;exitX=0;exitY=0.5;exitDx=0;exitDy=0;entryX=0.5;entryY=1;entryDx=0;entryDy=0;" edge="1" parent="2" source="33" target="3">
                    <mxGeometry relative="1" as="geometry">
                        <Array as="points">
                            <mxPoint x="100" y="360"/>
                        </Array>
                    </mxGeometry>
                </mxCell>
                <mxCell id="41" value="DataAction" style="edgeLabel;html=1;align=center;verticalAlign=middle;resizable=0;points=[];" vertex="1" connectable="0" parent="40">
                    <mxGeometry x="0.4753" y="2" relative="1" as="geometry">
                        <mxPoint as="offset"/>
                    </mxGeometry>
                </mxCell>
                <mxCell id="45" style="edgeStyle=none;html=1;exitX=0;exitY=0.25;exitDx=0;exitDy=0;entryX=0.5;entryY=1;entryDx=0;entryDy=0;" edge="1" parent="2" source="33" target="4">
                    <mxGeometry relative="1" as="geometry">
                        <Array as="points">
                            <mxPoint x="295" y="345"/>
                        </Array>
                    </mxGeometry>
                </mxCell>
                <mxCell id="33" value="DataPermission" style="rounded=0;whiteSpace=wrap;html=1;" vertex="1" parent="2">
                    <mxGeometry x="335" y="330" width="120" height="60" as="geometry"/>
                </mxCell>
                <mxCell id="8" value="Admin" style="rounded=1;whiteSpace=wrap;html=1;" vertex="1" parent="1">
                    <mxGeometry x="890" y="30" width="120" height="60" as="geometry"/>
                </mxCell>
                <mxCell id="10" style="edgeStyle=none;html=1;exitX=0.5;exitY=1;exitDx=0;exitDy=0;entryX=0.5;entryY=0;entryDx=0;entryDy=0;" edge="1" parent="1" source="9" target="2">
                    <mxGeometry relative="1" as="geometry"/>
                </mxCell>
                <mxCell id="9" value="Universe" style="rounded=1;whiteSpace=wrap;html=1;" vertex="1" parent="1">
                    <mxGeometry x="435" y="30" width="120" height="60" as="geometry"/>
                </mxCell>
                <mxCell id="15" style="edgeStyle=none;html=1;exitX=0;exitY=0.5;exitDx=0;exitDy=0;" edge="1" parent="1" source="11" target="8">
                    <mxGeometry relative="1" as="geometry"/>
                </mxCell>
                <mxCell id="11" value="Account" style="rounded=1;whiteSpace=wrap;html=1;" vertex="1" parent="1">
                    <mxGeometry x="1160" y="30" width="120" height="60" as="geometry"/>
                </mxCell>
                <mxCell id="13" style="edgeStyle=none;html=1;exitX=0;exitY=0.5;exitDx=0;exitDy=0;entryX=1;entryY=0.5;entryDx=0;entryDy=0;" edge="1" parent="1" source="12" target="7">
                    <mxGeometry relative="1" as="geometry">
                        <Array as="points">
                            <mxPoint x="880" y="230"/>
                            <mxPoint x="880" y="280"/>
                        </Array>
                    </mxGeometry>
                </mxCell>
                <mxCell id="14" style="edgeStyle=none;html=1;exitX=1;exitY=0.5;exitDx=0;exitDy=0;entryX=0.5;entryY=1;entryDx=0;entryDy=0;" edge="1" parent="1" source="12" target="11">
                    <mxGeometry relative="1" as="geometry">
                        <Array as="points">
                            <mxPoint x="1220" y="230"/>
                        </Array>
                    </mxGeometry>
                </mxCell>
                <mxCell id="12" value="RoleAccount" style="rounded=1;whiteSpace=wrap;html=1;" vertex="1" parent="1">
                    <mxGeometry x="930" y="200" width="120" height="60" as="geometry"/>
                </mxCell>
                <mxCell id="16" value="Admins can only be created through the CLI and have full access to all data, no restrictions" style="shape=note;size=15;align=left;spacingLeft=10;html=1;whiteSpace=wrap;" vertex="1" parent="1">
                    <mxGeometry x="820" y="-210" width="150" height="100" as="geometry"/>
                </mxCell>
                <mxCell id="18" value="" style="edgeStyle=none;endArrow=none;dashed=1;html=1;exitX=0.5;exitY=1;exitDx=0;exitDy=0;exitPerimeter=0;entryX=0.5;entryY=0;entryDx=0;entryDy=0;" edge="1" source="16" parent="1" target="8">
                    <mxGeometry x="1" relative="1" as="geometry">
                        <mxPoint x="870" y="30" as="targetPoint"/>
                        <mxPoint x="980" y="-30" as="sourcePoint"/>
                    </mxGeometry>
                </mxCell>
                <mxCell id="20" value="A universe is a collection of data, roles, and accounts. If a user has roles within a universe, they can have access to that universe's data.&lt;br&gt;It's similar to discord servers" style="shape=note;size=15;align=left;spacingLeft=10;html=1;whiteSpace=wrap;" vertex="1" parent="1">
                    <mxGeometry x="480" y="-290" width="150" height="170" as="geometry"/>
                </mxCell>
                <mxCell id="21" value="" style="edgeStyle=none;endArrow=none;exitX=0.5;exitY=1;dashed=1;html=1;exitDx=0;exitDy=0;exitPerimeter=0;entryX=0.5;entryY=0;entryDx=0;entryDy=0;" edge="1" source="20" parent="1" target="9">
                    <mxGeometry x="1" relative="1" as="geometry">
                        <mxPoint x="455" y="-150" as="targetPoint"/>
                    </mxGeometry>
                </mxCell>
                <mxCell id="24" value="Linking table giving accounts roles within a universe" style="shape=note;size=15;align=left;spacingLeft=10;html=1;whiteSpace=wrap;" vertex="1" parent="1">
                    <mxGeometry x="1010" y="340" width="150" height="110" as="geometry"/>
                </mxCell>
                <mxCell id="25" value="" style="edgeStyle=none;endArrow=none;exitX=0.4;exitY=0;dashed=1;html=1;entryX=0.5;entryY=1;entryDx=0;entryDy=0;" edge="1" source="24" parent="1" target="12">
                    <mxGeometry x="1" relative="1" as="geometry">
                        <mxPoint x="1030" y="300" as="targetPoint"/>
                    </mxGeometry>
                </mxCell>
                <mxCell id="30" value="Roles are universe-specific. They are created by those who are in that universe" style="shape=note;size=15;align=left;spacingLeft=10;html=1;whiteSpace=wrap;" vertex="1" parent="1">
                    <mxGeometry x="930" y="520" width="150" height="140" as="geometry"/>
                </mxCell>
                <mxCell id="31" value="" style="edgeStyle=none;endArrow=none;exitX=0.4;exitY=0;dashed=1;html=1;entryX=0.5;entryY=1;entryDx=0;entryDy=0;" edge="1" source="30" parent="1" target="7">
                    <mxGeometry x="1" relative="1" as="geometry">
                        <mxPoint x="950" y="480" as="targetPoint"/>
                    </mxGeometry>
                </mxCell>
                <mxCell id="37" value="DataPermissions are a json property inside a Role. If a user is a part of a role, it will have these permissions." style="shape=note;size=15;align=left;spacingLeft=10;html=1;whiteSpace=wrap;" vertex="1" parent="1">
                    <mxGeometry x="900" y="720" width="150" height="140" as="geometry"/>
                </mxCell>
                <mxCell id="38" value="" style="edgeStyle=none;endArrow=none;exitX=0.4;exitY=0;dashed=1;html=1;entryX=1;entryY=1;entryDx=0;entryDy=0;" edge="1" source="37" parent="1" target="33">
                    <mxGeometry x="1" relative="1" as="geometry">
                        <mxPoint x="920" y="740" as="targetPoint"/>
                    </mxGeometry>
                </mxCell>
                <mxCell id="42" value="A DataAction (enum) is an action that affects a whole StructData. Create/Archive/Delete, etc." style="shape=note;size=15;align=left;spacingLeft=10;html=1;whiteSpace=wrap;" vertex="1" parent="1">
                    <mxGeometry x="-70" y="520" width="150" height="120" as="geometry"/>
                </mxCell>
                <mxCell id="44" value="" style="edgeStyle=none;endArrow=none;exitX=0;exitY=0;dashed=1;html=1;exitDx=150;exitDy=67.5;exitPerimeter=0;" edge="1" source="42" parent="1">
                    <mxGeometry x="1" relative="1" as="geometry">
                        <mxPoint x="200" y="440" as="targetPoint"/>
                    </mxGeometry>
                </mxCell>
                <mxCell id="46" value="A PropertyAction (enum) is an action that affects only specific properties of a StructData. There are only two: Read/Update.&amp;nbsp;" style="shape=note;size=15;align=left;spacingLeft=10;html=1;whiteSpace=wrap;" vertex="1" parent="1">
                    <mxGeometry x="-70" y="370" width="150" height="140" as="geometry"/>
                </mxCell>
                <mxCell id="48" value="" style="edgeStyle=none;endArrow=none;exitX=0.8;exitY=0;dashed=1;html=1;entryX=0;entryY=1;entryDx=0;entryDy=0;" edge="1" source="46" parent="1" target="4">
                    <mxGeometry x="1" relative="1" as="geometry">
                        <mxPoint x="100" y="330" as="targetPoint"/>
                    </mxGeometry>
                </mxCell>
            </root>
        </mxGraphModel>
    </diagram>
</mxfile>